<svg id="wwdlogo" data-name="Layer 1" xmlns="http://www.w3.org/2000/svg" viewBox="0 0 163.99 11.47">
    <path d="M10.68,11.14H10.12L8,6.3,5.95,11.15H5.36l-3.94-9H2.14l3.51,8,2-4.73L6.18,2.12H6.89l3.51,8,3.39-8H14.5Z" transform="translate(-1.42 -1.91)"/>
    <path d="M15.91,11.14v-9h0.68v9H15.91Z" transform="translate(-1.42 -1.91)"/>
    <path d="M26.26,11.14l-5-4.73L19.3,7.87v3.27H18.62v-9H19.3V7.06l6.64-4.94H27L21.79,6l5.42,5.14H26.26Z" transform="translate(-1.42 -1.91)"/>
    <path d="M34,11.14H33.25l4.64-9.23h0.73Z" transform="translate(-1.42 -1.91)"/>
    <path d="M39.56,11.14H38.83l4.64-9.23h0.73Z" transform="translate(-1.42 -1.91)"/>
    <path d="M57.82,11.14H57.18L55.56,7.61,54,11.15H53.43l-3-6.49h0.78l2.52,5.58,1.46-3.49-1-2.09H55l2.5,5.6,2.34-5.6h0.74Z" transform="translate(-1.42 -1.91)"/>
    <path d="M62.38,8.14A2.37,2.37,0,0,0,65,10.66a2.44,2.44,0,0,0,2.54-1.58h0.69A2.83,2.83,0,0,1,67,10.84a3.93,3.93,0,0,1-1.94.45,3.22,3.22,0,0,1-2.5-.94,3.45,3.45,0,0,1-.81-2.43,3.39,3.39,0,0,1,.92-2.47,3.28,3.28,0,0,1,2.45-.94,3.43,3.43,0,0,1,2.45.86,3,3,0,0,1,.92,2.32V8.14H62.38Zm2.7-3a2.7,2.7,0,0,0-1.86.64,2.61,2.61,0,0,0-.84,1.76H67.7a2.45,2.45,0,0,0-.78-1.76A2.65,2.65,0,0,0,65.08,5.12Z" transform="translate(-1.42 -1.91)"/>
    <path d="M75.83,10.3a3.19,3.19,0,0,1-2.47,1A3,3,0,0,1,70.72,10v1.17H70v-9h0.68V5.65a3,3,0,0,1,2.65-1.26,3.1,3.1,0,0,1,2.47,1,3.6,3.6,0,0,1,.83,2.47A3.44,3.44,0,0,1,75.83,10.3ZM75.35,5.82A2.38,2.38,0,0,0,73.41,5a2.55,2.55,0,0,0-2,.8,3.06,3.06,0,0,0-.65,2.08,2.74,2.74,0,0,0,.74,2,2.61,2.61,0,0,0,2,.77,2.39,2.39,0,0,0,1.92-.81,3,3,0,0,0,.64-2A3.06,3.06,0,0,0,75.35,5.82Z" transform="translate(-1.42 -1.91)"/>
    <path d="M89.72,11.14V10A3,3,0,0,1,87,11.29a3.1,3.1,0,0,1-2.43-1,3.53,3.53,0,0,1-.84-2.43,3.54,3.54,0,0,1,.85-2.46,3.15,3.15,0,0,1,2.47-1,3,3,0,0,1,2.65,1.26V2.12H90.4v9H89.72ZM89,5.81A2.61,2.61,0,0,0,87,5a2.38,2.38,0,0,0-1.92.84,3,3,0,0,0-.66,2,2.94,2.94,0,0,0,.65,2,2.39,2.39,0,0,0,1.94.82,2.53,2.53,0,0,0,2-.82,2.8,2.8,0,0,0,.73-2A2.94,2.94,0,0,0,89,5.81Z" transform="translate(-1.42 -1.91)"/>
    <path d="M92.8,8.14a2.37,2.37,0,0,0,2.67,2.53A2.44,2.44,0,0,0,98,9.08H98.7a2.83,2.83,0,0,1-1.32,1.76,3.93,3.93,0,0,1-1.94.45,3.22,3.22,0,0,1-2.5-.94,3.45,3.45,0,0,1-.81-2.43A3.39,3.39,0,0,1,93,5.43a3.28,3.28,0,0,1,2.45-.94A3.43,3.43,0,0,1,98,5.35a3,3,0,0,1,.92,2.32V8.14H92.8Zm2.7-3a2.7,2.7,0,0,0-1.86.64,2.61,2.61,0,0,0-.84,1.76h5.32a2.45,2.45,0,0,0-.78-1.76A2.65,2.65,0,0,0,95.5,5.12Z" transform="translate(-1.42 -1.91)"/>
    <path d="M103.46,11.14h-0.61L99.71,4.65h0.8l2.64,5.62,2.47-5.62h0.74Z" transform="translate(-1.42 -1.91)"/>
    <path d="M107.92,8.14a2.37,2.37,0,0,0,2.67,2.53,2.44,2.44,0,0,0,2.54-1.58h0.69a2.83,2.83,0,0,1-1.32,1.76,3.93,3.93,0,0,1-1.94.45,3.22,3.22,0,0,1-2.5-.94,3.45,3.45,0,0,1-.81-2.43,3.39,3.39,0,0,1,.92-2.47,3.28,3.28,0,0,1,2.45-.94,3.43,3.43,0,0,1,2.45.86A3,3,0,0,1,114,7.67V8.14h-6.07Zm2.7-3a2.7,2.7,0,0,0-1.86.64,2.61,2.61,0,0,0-.84,1.76h5.32a2.45,2.45,0,0,0-.78-1.76A2.65,2.65,0,0,0,110.62,5.12Z" transform="translate(-1.42 -1.91)"/>
    <path d="M115.58,11.14v-9h0.68v9h-0.68Z" transform="translate(-1.42 -1.91)"/>
    <path d="M121.37,11.29a3.35,3.35,0,0,1-2.51-.94,3.35,3.35,0,0,1-.92-2.45,3.3,3.3,0,0,1,1-2.48,3.45,3.45,0,0,1,2.51-.92,3.4,3.4,0,0,1,2.49.92,3.33,3.33,0,0,1,.94,2.48,3.28,3.28,0,0,1-1,2.47A3.46,3.46,0,0,1,121.37,11.29Zm2-5.41a2.68,2.68,0,0,0-2-.77,2.72,2.72,0,0,0-2,.75,2.75,2.75,0,0,0-.75,2,2.72,2.72,0,0,0,.75,2,3.08,3.08,0,0,0,4,0,2.72,2.72,0,0,0,.75-2A2.79,2.79,0,0,0,123.41,5.88Z" transform="translate(-1.42 -1.91)"/>
    <path d="M129.83,11.38a3,3,0,0,1-2.65-1.28v3.27H126.5V4.64h0.68V5.77a3,3,0,0,1,2.63-1.28,3.19,3.19,0,0,1,2.47,1,3.52,3.52,0,0,1,.84,2.45,3.6,3.6,0,0,1-.86,2.53A3.13,3.13,0,0,1,129.83,11.38Zm2-5.44a2.36,2.36,0,0,0-1.91-.82,2.61,2.61,0,0,0-2,.77,2.78,2.78,0,0,0-.74,2,3,3,0,0,0,.65,2.06,2.55,2.55,0,0,0,2,.8,2.39,2.39,0,0,0,1.94-.82,3.05,3.05,0,0,0,.64-2A3,3,0,0,0,131.8,5.94Z" transform="translate(-1.42 -1.91)"/>
    <path d="M144,11.14V6.9a1.55,1.55,0,0,0-1.73-1.78,2.16,2.16,0,0,0-1.53.53,1.85,1.85,0,0,0-.57,1.42v4.07h-0.68V6.9a1.57,1.57,0,0,0-1.77-1.78,1.88,1.88,0,0,0-1.57.73,2.65,2.65,0,0,0-.51,1.65v3.65h-0.68V4.64h0.68V5.49a2.58,2.58,0,0,1,2.21-1,2.14,2.14,0,0,1,2.09,1.14,2.44,2.44,0,0,1,2.3-1.14q2.43,0,2.43,2.29v4.36H144Z" transform="translate(-1.42 -1.91)"/>
    <path d="M147,8.14a2.37,2.37,0,0,0,2.67,2.53,2.44,2.44,0,0,0,2.54-1.58h0.69a2.83,2.83,0,0,1-1.32,1.76,3.93,3.93,0,0,1-1.94.45,3.22,3.22,0,0,1-2.5-.94,3.45,3.45,0,0,1-.81-2.43,3.39,3.39,0,0,1,.92-2.47,3.28,3.28,0,0,1,2.45-.94,3.43,3.43,0,0,1,2.45.86,3,3,0,0,1,.92,2.32V8.14H147Zm2.7-3a2.7,2.7,0,0,0-1.86.64A2.61,2.61,0,0,0,147,7.51h5.32a2.45,2.45,0,0,0-.78-1.76A2.65,2.65,0,0,0,149.69,5.12Z" transform="translate(-1.42 -1.91)"/>
    <path d="M159.8,11.14V6.9a1.67,1.67,0,0,0-.56-1.34,2.31,2.31,0,0,0-1.49-.44,2.24,2.24,0,0,0-2.41,2.38v3.65h-0.68V4.64h0.68V5.53a2.79,2.79,0,0,1,2.39-1,3.13,3.13,0,0,1,1.93.56,2,2,0,0,1,.81,1.73v4.36H159.8Z" transform="translate(-1.42 -1.91)"/>
    <path d="M164.07,5.55v5.59h-0.68V5.55h-1.32V4.93h1.32V3h0.68v2h1.34V5.55h-1.34Z" transform="translate(-1.42 -1.91)"/>
</svg>
